<svg xmlns="http://www.w3.org/2000/svg" xmlns:xlink="http://www.w3.org/1999/xlink" width="1050" height="909" viewBox="0 0 1050 909">
  <defs>
    <clipPath id="clip-Plan_de_travail_1">
      <rect width="1050" height="909"/>
    </clipPath>
  </defs>
  <g id="Plan_de_travail_1" data-name="Plan de travail – 1" clip-path="url(#clip-Plan_de_travail_1)">
    <rect width="1050" height="909" fill="#021885"/>
    <g id="Groupe_7" data-name="Groupe 7" transform="translate(342.502 40.915)">
      <g id="Rectangle_16" data-name="Rectangle 16" transform="matrix(0.998, 0.07, -0.07, 0.998, 11.467, 133.28)" fill="none" stroke="#38549f" stroke-width="3">
        <rect width="400.744" height="568.158" rx="38" stroke="none"/>
        <rect x="1.5" y="1.5" width="397.744" height="565.158" rx="36.5" fill="none"/>
      </g>
      <g id="Tracé_7" data-name="Tracé 7" transform="matrix(0.995, -0.105, 0.105, 0.995, -101.958, 109.955)" fill="none">
        <path d="M42.9-.151,474.776-2.073a42.314,42.314,0,0,1,42.532,42.638l-2.783,602.046A43.251,43.251,0,0,1,471.6,685.629L39.721,687.551A42.314,42.314,0,0,1-2.811,644.913L-.027,42.867A43.251,43.251,0,0,1,42.9-.151Z" stroke="none"/>
        <path d="M 474.9692687988281 1.92620849609375 C 474.91162109375 1.92620849609375 474.8504333496094 1.9263916015625 474.7933654785156 1.92669677734375 L 42.91854858398438 3.84857177734375 C 37.68743896484375 3.87188720703125 32.6092529296875 4.9207763671875 27.82516479492188 6.96624755859375 C 23.1993408203125 8.9439697265625 19.03890991210938 11.76556396484375 15.4593505859375 15.35260009765625 C 11.8792724609375 18.94024658203125 9.0626220703125 23.11077880859375 7.087890625 27.7484130859375 C 5.04498291015625 32.54595947265625 3.996795654296875 37.638671875 3.972625732421875 42.88525390625 L 1.1893310546875 644.9313354492188 C 1.16510009765625 650.167236328125 2.1619873046875 655.2393188476562 4.15234375 660.0066528320312 C 6.0743408203125 664.6104736328125 8.838165283203125 668.742431640625 12.36697387695312 672.28759765625 C 15.88497924804688 675.8218383789062 19.98681640625 678.5955810546875 24.55862426757812 680.5316162109375 C 29.28997802734375 682.5352172851562 34.32626342773438 683.5511474609375 39.5277099609375 683.5511474609375 C 39.58535766601562 683.5511474609375 39.64654541015625 683.5509643554688 39.70361328125 683.5506591796875 L 471.578369140625 681.628662109375 C 476.8094482421875 681.6054077148438 481.8876342773438 680.5565185546875 486.6717224121094 678.5111083984375 C 491.2975463867188 676.5333251953125 495.4579772949219 673.7117919921875 499.0375366210938 670.124755859375 C 502.6177062988281 666.537109375 505.4342651367188 662.3665771484375 507.4090881347656 657.7289428710938 C 509.4519958496094 652.931396484375 510.5001831054688 647.8385620117188 510.5243530273438 642.5921630859375 L 513.3076171875 40.5460205078125 C 513.3319091796875 35.31011962890625 512.3349609375 30.23797607421875 510.3446350097656 25.4705810546875 C 508.4225463867188 20.86676025390625 505.6587219238281 16.73486328125 502.1298828125 13.189697265625 C 498.6119079589844 9.6553955078125 494.5100708007812 6.88177490234375 489.9382629394531 4.9456787109375 C 485.2070007324219 2.942138671875 480.1706237792969 1.92620849609375 474.9692687988281 1.92620849609375 M 474.9692687988281 -2.07373046875 C 498.4805603027344 -2.07373046875 517.4166259765625 16.9747314453125 517.3076171875 40.56451416015625 L 514.5243530273438 642.610595703125 C 514.4149780273438 666.2637939453125 495.1953430175781 685.523681640625 471.5961608886719 685.628662109375 L 39.721435546875 687.5506591796875 C 39.6580810546875 687.5509643554688 39.59100341796875 687.5510864257812 39.5277099609375 687.5510864257812 C 16.01641845703125 687.5510864257812 -2.91973876953125 668.5026245117188 -2.8106689453125 644.912841796875 L -0.02740478515625 42.86676025390625 C 0.08197021484375 19.21356201171875 19.30154418945312 -0.04632568359375 42.90072631835938 -0.15142822265625 L 474.7755432128906 -2.07330322265625 C 474.8389282226562 -2.0736083984375 474.9059753417969 -2.07373046875 474.9692687988281 -2.07373046875 Z" stroke="none" fill="#38549f"/>
      </g>
      <g id="Rectangle_18" data-name="Rectangle 18" transform="translate(13.148 221.382) rotate(-3)" fill="none" stroke="#38549f" stroke-width="2">
        <rect width="334.379" height="436.624" rx="38" stroke="none"/>
        <rect x="1" y="1" width="332.379" height="434.624" rx="37" fill="none"/>
      </g>
      <g id="Tracé_8" data-name="Tracé 8" transform="translate(-105.43 2.202) rotate(3)" fill="none">
        <path d="M45.808.074,584.535.947c25.305.041,45.857,18.666,45.9,41.6l1.454,711.734c.047,22.934-20.429,41.492-45.734,41.451l-538.727-.873c-25.305-.041-45.857-18.666-45.9-41.6L.074,41.525C.027,18.591,20.5.033,45.808.074Z" stroke="none"/>
        <path d="M 45.7249755859375 5.07403564453125 C 39.80621337890625 5.07403564453125 34.1041259765625 6.18341064453125 28.77685546875 8.37127685546875 C 26.23175048828125 9.41650390625 23.796875 10.70562744140625 21.53973388671875 12.2025146484375 C 19.30999755859375 13.6812744140625 17.2412109375 15.37127685546875 15.3907470703125 17.22552490234375 C 12.113525390625 20.509521484375 9.55718994140625 24.24603271484375 7.79254150390625 28.33135986328125 C 5.97955322265625 32.5289306640625 5.06500244140625 36.9644775390625 5.0743408203125 41.51483154296875 L 6.52777099609375 753.248291015625 C 6.53765869140625 758.119140625 7.6014404296875 762.8491821289062 9.6893310546875 767.3069458007812 C 11.72442626953125 771.65185546875 14.6435546875 775.5650634765625 18.36529541015625 778.9379272460938 C 22.1221923828125 782.3424682617188 26.50262451171875 785.0210571289062 31.38507080078125 786.8990478515625 C 36.46588134765625 788.853271484375 41.867431640625 789.8488159179688 47.43963623046875 789.8578491210938 L 586.2421875 790.7308349609375 C 592.160888671875 790.7308349609375 597.8629760742188 789.6215209960938 603.1901245117188 787.43359375 C 605.7352294921875 786.3883666992188 608.1701049804688 785.099365234375 610.4271850585938 783.6024780273438 C 612.6568603515625 782.1237182617188 614.7256469726562 780.4337158203125 616.5761108398438 778.5794677734375 C 619.8533325195312 775.2955932617188 622.4097900390625 771.55908203125 624.17431640625 767.4736328125 C 625.9873046875 763.2760620117188 626.90185546875 758.8405151367188 626.8925170898438 754.2901611328125 L 625.43896484375 42.55657958984375 C 625.4290771484375 37.68572998046875 624.3652954101562 32.9556884765625 622.2774047851562 28.498046875 C 620.2423095703125 24.153076171875 617.3233032226562 20.23980712890625 613.6014404296875 16.8670654296875 C 609.8446655273438 13.4625244140625 605.464111328125 10.783935546875 600.581787109375 8.90594482421875 C 595.5009765625 6.95172119140625 590.0994262695312 5.9561767578125 584.5272216796875 5.9471435546875 L 45.7249755859375 5.07403564453125 M 45.7249755859375 0.0740966796875 C 45.7542724609375 0.0740966796875 45.77911376953125 0.0740966796875 45.80841064453125 0.07415771484375 L 584.5353393554688 0.9471435546875 C 609.8404541015625 0.9881591796875 630.3922119140625 19.61285400390625 630.43896484375 42.54638671875 L 631.8925170898438 754.2799682617188 C 631.9393920898438 777.18701171875 611.5066528320312 795.7307739257812 586.2422485351562 795.7307739257812 C 586.212890625 795.7307739257812 586.1878662109375 795.7307739257812 586.1585693359375 795.730712890625 L 47.4315185546875 794.8578491210938 C 22.12640380859375 794.8168334960938 1.57452392578125 776.192138671875 1.52777099609375 753.2584838867188 L 0.0743408203125 41.5250244140625 C 0.0274658203125 18.61798095703125 20.46038818359375 0.0740966796875 45.7249755859375 0.0740966796875 Z" stroke="none" fill="#38549f"/>
      </g>
      <g id="Tracé_9" data-name="Tracé 9" transform="matrix(0.998, -0.07, 0.07, 0.998, -219.892, -49.351)" fill="none">
        <path d="M54.659.074,697.642,1.13c30.2.05,54.731,22.579,54.787,50.321l1.735,860.95c.056,27.742-24.382,50.191-54.585,50.141L56.6,961.486c-30.2-.05-54.731-22.579-54.787-50.321L.074,50.215C.018,22.474,24.457.025,54.659.074Z" stroke="none"/>
        <path d="M 54.5589599609375 0.0740966796875 L 54.5589599609375 6.0740966796875 C 40.89581298828125 6.0740966796875 27.7982177734375 11.34613037109375 18.62457275390625 20.5382080078125 C 10.50921630859375 28.66998291015625 6.05206298828125 39.205078125 6.07421875 50.203125 L 7.80908203125 911.1529541015625 C 7.85821533203125 935.5540771484375 29.74847412109375 955.4417114257812 56.6060791015625 955.4857177734375 L 699.678955078125 956.5418701171875 C 713.3422241210938 956.5418701171875 726.43994140625 951.2698364257812 735.6137084960938 942.07763671875 C 743.7289428710938 933.9459838867188 748.1860961914062 923.4107055664062 748.163818359375 912.412841796875 L 746.4290771484375 51.46282958984375 C 746.3799438476562 27.06170654296875 724.4896850585938 7.17425537109375 697.6319580078125 7.1302490234375 L 54.59747314453125 6.0740966796875 L 54.5589599609375 0.0740966796875 M 54.55902099609375 0.07415771484375 C 54.593994140625 0.07415771484375 54.6239013671875 0.07415771484375 54.658935546875 0.07421875 L 697.641845703125 1.1302490234375 C 727.8441772460938 1.17974853515625 752.3732299804688 23.7091064453125 752.4290771484375 51.45074462890625 L 754.163818359375 912.4007568359375 C 754.2198486328125 940.1424560546875 729.7792358398438 962.5912475585938 699.5792236328125 962.541748046875 L 56.59619140625 961.4857177734375 C 26.39410400390625 961.4362182617188 1.86492919921875 938.9068603515625 1.80908203125 911.1651000976562 L 0.07421875 50.2152099609375 C 0.01837158203125 22.50579833984375 24.4052734375 0.07415771484375 54.55902099609375 0.07415771484375 Z" stroke="none" fill="#38549f"/>
      </g>
      <g id="Tracé_9-2" data-name="Tracé 9" transform="translate(-304.595 -36.409) rotate(-7)">
        <path id="Tracé_10" data-name="Tracé 10" d="M62.685.074l737.48,1.079C834.806,1.2,862.94,24.224,863,52.57l1.989,879.693c.064,28.346-27.966,51.283-62.607,51.238L64.9,982.415C30.262,982.365,2.128,959.345,2.064,931L.074,51.306C.01,22.962,28.04.024,62.685.074Z" fill="none"/>
        <path id="Tracé_11" data-name="Tracé 11" d="M66.274.074V7.2C48.5,7.2,31.8,13.93,20.478,25.664c-8.737,9.051-13.534,20.5-13.51,32.229l2.108,993.049c.059,28.033,26.833,50.88,59.684,50.931l781.343,1.219c17.778,0,34.47-6.731,45.8-18.465,8.737-9.051,13.535-20.5,13.51-32.229L907.3,59.349c-.06-28.032-26.834-50.88-59.684-50.931L66.322,7.2,66.274.074m0,0H66.4L847.628,1.292c36.7.057,66.5,26.043,66.568,58.042l2.107,993.049c.068,32-29.625,57.892-66.321,57.834L68.749,1109c-36.7-.057-66.5-26.043-66.567-58.042L.074,57.909C.006,25.947,29.637.074,66.274.074Z" transform="matrix(0.985, 0.174, -0.174, 0.985, 73.792, -120.276)" fill="#38549f" stroke="#365199" stroke-width="2"/>
      </g>
    </g>
  </g>
</svg>
