<svg xmlns="http://www.w3.org/2000/svg" xmlns:xlink="http://www.w3.org/1999/xlink" width="393" height="852" viewBox="0 0 393 852">
  <defs>
    <clipPath id="clip-iPhone_14_Pro_1">
      <rect width="393" height="852"/>
    </clipPath>
  </defs>
  <g id="iPhone_14_Pro_1" data-name="iPhone 14 Pro – 1" clip-path="url(#clip-iPhone_14_Pro_1)">
    <rect width="393" height="852" fill="#021885"/>
    <g id="Groupe_7" data-name="Groupe 7">
      <g id="Rectangle_16" data-name="Rectangle 16" transform="matrix(0.998, 0.07, -0.07, 0.998, 11.467, 133.28)" fill="none" stroke="#38549f" stroke-width="3">
        <rect width="400.744" height="568.158" rx="38" stroke="none"/>
        <rect x="1.5" y="1.5" width="397.744" height="565.158" rx="36.5" fill="none"/>
      </g>
      <g id="Tracé_7" data-name="Tracé 7" transform="matrix(0.995, -0.105, 0.105, 0.995, -81.605, 107.816)" fill="none">
        <path d="M40.285-.187,447.447-2.073c22.249-.1,40.2,18.636,40.1,41.855L484.921,630.77c-.1,23.219-18.223,42.125-40.472,42.228L37.288,674.885c-22.249.1-40.2-18.636-40.1-41.855L-.187,42.041C-.084,18.823,18.036-.084,40.285-.187Z" stroke="none"/>
        <path d="M 447.6293029785156 1.92626953125 C 447.5755920410156 1.92626953125 447.5185852050781 1.92645263671875 447.4651184082031 1.92669677734375 L 40.3035888671875 3.8133544921875 C 35.42276000976562 3.83587646484375 30.68313598632812 4.8555908203125 26.21640014648438 6.84405517578125 C 21.88604736328125 8.77178955078125 17.98858642578125 11.5247802734375 14.63238525390625 15.02667236328125 C 11.26486206054688 18.54034423828125 8.614227294921875 22.6280517578125 6.754119873046875 27.17645263671875 C 4.825592041015625 31.8919677734375 3.836212158203125 36.899169921875 3.81329345703125 42.05908203125 L 1.189300537109375 633.048095703125 C 1.165771484375 638.3330688476562 2.15594482421875 643.4408569335938 4.132293701171875 648.2294921875 C 6.03668212890625 652.8436279296875 8.764129638671875 656.9530029296875 12.23904418945312 660.443359375 C 18.94293212890625 667.1770629882812 27.77377319335938 670.885498046875 37.1048583984375 670.885498046875 C 37.1585693359375 670.885498046875 37.215576171875 670.8853149414062 37.26904296875 670.8850708007812 L 444.4306640625 668.9984130859375 C 449.3114929199219 668.9758911132812 454.0511169433594 667.9561767578125 458.5178527832031 665.9677124023438 C 462.8482055664062 664.0399780273438 466.7456665039062 661.286865234375 470.1018676757812 657.7850952148438 C 473.4693908691406 654.2714233398438 476.1200256347656 650.18359375 477.9801330566406 645.63525390625 C 479.9086608886719 640.9197998046875 480.8980407714844 635.9125366210938 480.9209594726562 630.7526245117188 L 483.5449523925781 39.763671875 C 483.5684814453125 34.4786376953125 482.5783081054688 29.37091064453125 480.6019592285156 24.582275390625 C 478.6976623535156 19.9681396484375 475.9701232910156 15.8587646484375 472.4953002929688 12.3685302734375 C 465.7913208007812 5.63470458984375 456.9603881835938 1.92626953125 447.6293029785156 1.92626953125 M 447.6292724609375 -2.07373046875 C 469.7952270507812 -2.07373046875 487.6477661132812 16.6248779296875 487.5449523925781 39.78143310546875 L 484.9209594726562 630.7703247070312 C 484.8178405761719 653.9891357421875 466.6980285644531 672.8953247070312 444.44921875 672.9984130859375 L 37.28756713867188 674.8850708007812 C 37.22784423828125 674.8853149414062 37.16458129882812 674.885498046875 37.10488891601562 674.885498046875 C 14.93902587890625 674.885498046875 -2.91351318359375 656.1868286132812 -2.810699462890625 633.0303344726562 L -0.18670654296875 42.04132080078125 C -0.083587646484375 18.822509765625 18.03622436523438 -0.08355712890625 40.2850341796875 -0.1866455078125 L 447.4465942382812 -2.07330322265625 C 447.50634765625 -2.07354736328125 447.569580078125 -2.07373046875 447.6292724609375 -2.07373046875 Z" stroke="none" fill="#38549f"/>
      </g>
      <g id="Rectangle_18" data-name="Rectangle 18" transform="translate(22.384 221.76) rotate(-3)" fill="none" stroke="#38549f" stroke-width="2">
        <rect width="328.379" height="436.624" rx="38" stroke="none"/>
        <rect x="1" y="1" width="326.379" height="434.624" rx="37" fill="none"/>
      </g>
      <g id="Tracé_8" data-name="Tracé 8" transform="translate(-26.846 6.321) rotate(3)" fill="none">
        <path d="M40.112.074l471.63.873c22.153.041,40.146,18.666,40.186,41.6L553.2,754.28c.041,22.934-17.885,41.492-40.038,41.451l-471.63-.873c-22.153-.041-40.146-18.666-40.187-41.6L.074,41.525C.033,18.591,17.959.033,40.112.074Z" stroke="none"/>
        <path d="M 40.0391845703125 5.07403564453125 C 30.93804931640625 5.07403564453125 22.32275390625 8.68359375 15.7802734375 15.23785400390625 C 12.4251708984375 18.59893798828125 9.78875732421875 22.54705810546875 7.94451904296875 26.972412109375 C 6.0308837890625 31.56402587890625 5.065185546875 36.457275390625 5.07421875 41.51617431640625 L 6.34674072265625 753.2496337890625 C 6.35565185546875 758.2047119140625 7.300048828125 763.0095825195312 9.154052734375 767.5308227539062 C 10.9417724609375 771.890625 13.49542236328125 775.80615234375 16.74395751953125 779.1689453125 C 19.9808349609375 782.5197143554688 23.74273681640625 785.150390625 27.9251708984375 786.988037109375 C 32.23944091796875 788.8836059570312 36.82098388671875 789.8490600585938 41.54251098632812 789.8578491210938 L 513.2362060546875 790.7308349609375 C 522.3372802734375 790.7308349609375 530.95263671875 787.1212768554688 537.4950561523438 780.5670776367188 C 540.8502197265625 777.2059326171875 543.4865112304688 773.2579345703125 545.3307495117188 768.8325805664062 C 547.2443237304688 764.240966796875 548.2100830078125 759.3477172851562 548.2009887695312 754.288818359375 L 546.9284057617188 42.5552978515625 C 546.9196166992188 37.60015869140625 545.97509765625 32.79541015625 544.1212158203125 28.274169921875 C 542.3334350585938 23.91436767578125 539.7798461914062 19.99871826171875 536.5313110351562 16.63604736328125 C 533.29443359375 13.2852783203125 529.5325317382812 10.65460205078125 525.35009765625 8.81695556640625 C 521.035888671875 6.92138671875 516.4542846679688 5.9559326171875 511.7327575683594 5.9471435546875 L 40.0391845703125 5.07403564453125 M 40.03924560546875 0.0740966796875 C 40.06488037109375 0.0740966796875 40.08660888671875 0.0740966796875 40.1123046875 0.07415771484375 L 511.7419738769531 0.9471435546875 C 533.8953857421875 0.9881591796875 551.8875122070312 19.61285400390625 551.9284057617188 42.54638671875 L 553.2009887695312 754.2799682617188 C 553.241943359375 777.18701171875 535.3540649414062 795.7307739257812 513.2362060546875 795.7307739257812 C 513.2105712890625 795.7307739257812 513.1886596679688 795.7307739257812 513.1629638671875 795.730712890625 L 41.53329467773438 794.8578491210938 C 19.3798828125 794.8168334960938 1.38775634765625 776.192138671875 1.34674072265625 753.2584838867188 L 0.07421875 41.5250244140625 C 0.0333251953125 18.61798095703125 17.9212646484375 0.0740966796875 40.03924560546875 0.0740966796875 Z" stroke="none" fill="#38549f"/>
      </g>
    </g>
  </g>
</svg>
