<svg width="98" height="97" viewBox="0 0 98 97" fill="none" xmlns="http://www.w3.org/2000/svg">
<g id="instagram-line">
<path id="Vector" d="M49.004 36.375C42.3054 36.375 36.879 41.8034 36.879 48.5C36.879 55.1983 42.3074 60.625 49.004 60.625C55.7023 60.625 61.129 55.1967 61.129 48.5C61.129 41.8018 55.7007 36.375 49.004 36.375ZM49.004 28.2917C60.1607 28.2917 69.2124 37.3333 69.2124 48.5C69.2124 59.6571 60.1708 68.7084 49.004 68.7084C37.8471 68.7084 28.7956 59.6668 28.7956 48.5C28.7956 37.3431 37.8372 28.2917 49.004 28.2917ZM75.2749 27.2779C75.2749 30.067 73.0083 32.33 70.2228 32.33C67.4336 32.33 65.1707 30.0636 65.1707 27.2779C65.1707 24.4921 67.4369 22.2292 70.2228 22.2292C73.0047 22.2257 75.2749 24.4921 75.2749 27.2779ZM49.004 16.1667C39.0029 16.1667 37.3728 16.1932 32.7212 16.4003C29.5521 16.5491 27.4277 16.9753 25.4539 17.7416C23.6998 18.4219 22.4345 19.2343 21.0863 20.5824C19.7329 21.9358 18.9221 23.1977 18.2445 24.9526C17.4764 26.931 17.0503 29.052 16.9042 32.2168C16.6951 36.679 16.6706 38.2385 16.6706 48.5C16.6706 58.5011 16.6971 60.1311 16.9042 64.7823C17.053 67.9502 17.4798 70.0777 18.2443 72.0468C18.9263 73.8033 19.7403 75.0716 21.082 76.4134C22.4407 77.7702 23.7064 78.5838 25.4446 79.2547C27.4425 80.0271 29.5656 80.4539 32.7206 80.5998C37.1829 80.8087 38.7424 80.8334 49.004 80.8334C59.0051 80.8334 60.6351 80.8067 65.2863 80.5998C68.4473 80.4514 70.5764 80.0234 72.5508 79.2595C74.3024 78.5793 75.5748 77.7625 76.9174 76.4219C78.2762 75.0611 79.0882 73.7984 79.7599 72.0561C80.5302 70.0656 80.9578 67.9396 81.1038 64.7835C81.3127 60.3211 81.3374 58.7614 81.3374 48.5C81.3374 38.499 81.3107 36.869 81.1038 32.2177C80.955 29.0558 80.527 26.9236 79.7623 24.95C79.0837 23.2007 78.2685 21.9315 76.9214 20.5824C75.5659 19.2269 74.3073 18.4176 72.5512 17.7406C70.5744 16.9732 68.4501 16.5465 65.2871 16.4004C60.8251 16.1912 59.2654 16.1667 49.004 16.1667ZM49.004 8.08337C59.9836 8.08337 61.3546 8.12379 65.6658 8.32587C69.9665 8.5246 72.9004 9.20494 75.477 10.2052C78.1408 11.2325 80.3908 12.6201 82.6372 14.8666C84.8803 17.1131 86.2682 19.3697 87.2988 22.0271C88.2955 24.6003 88.9761 27.5372 89.1782 31.8383C89.3702 36.1494 89.4207 37.5202 89.4207 48.5C89.4207 59.48 89.3803 60.8506 89.1782 65.1618C88.9793 69.4629 88.2955 72.3964 87.2988 74.973C86.2714 77.6372 84.8803 79.8868 82.6372 82.1336C80.3908 84.3767 78.1307 85.7642 75.477 86.7948C72.9004 87.7919 69.9665 88.4721 65.6658 88.6742C61.3546 88.8662 59.9836 88.9167 49.004 88.9167C38.0241 88.9167 36.6533 88.8763 32.3422 88.6742C28.0412 88.4754 25.1109 87.7919 22.531 86.7948C19.8702 85.7674 17.617 84.3767 15.3705 82.1336C13.1241 79.8868 11.7398 77.6271 10.7092 74.973C9.70884 72.3964 9.03186 69.4629 8.82978 65.1618C8.6378 60.8506 8.58728 59.48 8.58728 48.5C8.58728 37.5202 8.6277 36.1494 8.82978 31.8383C9.02847 27.5339 9.70884 24.6037 10.7092 22.0271C11.7364 19.3664 13.1241 17.1131 15.3705 14.8666C17.617 12.6201 19.8736 11.2359 22.531 10.2052C25.1076 9.20494 28.0378 8.52796 32.3422 8.32587C36.6533 8.13389 38.0241 8.08337 49.004 8.08337Z" fill="#FDFDFD"/>
</g>
</svg>
