<svg width="99" height="99" viewBox="0 0 99 99" fill="none" xmlns="http://www.w3.org/2000/svg">
<g id="linkedin-fill">
<path id="Vector" d="M28.6295 20.6247C28.628 23.9837 26.5901 27.0065 23.4768 28.2675C20.3635 29.5286 16.7965 28.7762 14.4577 26.3651C12.119 23.954 11.4755 20.3657 12.8308 17.2923C14.1861 14.2188 17.2695 12.2739 20.627 12.3747C25.0864 12.5086 28.6315 16.1633 28.6295 20.6247ZM28.877 34.9797H12.377V86.6246H28.877V34.9797ZM54.9471 34.9797H38.5295V86.6246H54.7821V59.5233C54.7821 44.4258 74.4583 43.0233 74.4583 59.5233V86.6246H90.7521V53.9133C90.7521 28.4622 61.6296 29.411 54.7821 41.9096L54.9471 34.9797Z" fill="#FDFDFD"/>
</g>
</svg>
