<svg width="107" height="43" viewBox="0 0 107 43" fill="none" xmlns="http://www.w3.org/2000/svg">
<g id="Calque_1" clip-path="url(#clip0_430_312)">
<path id="Vector" d="M52.9 0.37989C20.74 0.37989 0.209954 11.5299 0.379954 22.0399C0.539954 32.6199 22.69 42.3099 53.73 42.3299C81.58 42.3499 106.51 32.3999 106.2 21.8899C105.86 10.7199 80.95 0.36989 52.9 0.37989Z" stroke="#9461D3" stroke-width="0.75" stroke-miterlimit="10"/>
<path id="Vector_2" d="M52.98 42.3299C44.83 42.3699 36.55 31.9599 36.43 21.6399C36.32 11.9599 43.37 0.459912 52.9 0.369912C62.46 0.279912 69.58 11.7199 69.78 21.2299C69.93 28.1199 66.45 34.8899 61.17 38.8599C59.3 40.2599 56.57 42.3199 52.98 42.3299Z" stroke="#9461D3" stroke-width="0.75" stroke-miterlimit="10"/>
<path id="Vector_3" d="M54.0599 0.599947C37.6299 0.279947 18.0199 10.0299 17.8899 21.0699C17.7599 31.9899 36.7099 42.2999 52.9799 42.3399C69.3599 42.3799 88.4899 32.0099 88.3199 20.9899C88.1599 10.1899 69.4999 0.899947 54.0599 0.599947Z" stroke="#9461D3" stroke-width="0.75" stroke-miterlimit="10"/>
<path id="Vector_4" d="M7.69995 11.08C37.76 11.05 67.82 11.01 97.88 10.98" stroke="#9461D3" stroke-width="0.75" stroke-miterlimit="10"/>
<path id="Vector_5" d="M0.380005 22.0399C35.65 21.9899 70.92 21.9399 106.2 21.8899" stroke="#9461D3" stroke-width="0.75" stroke-miterlimit="10"/>
<path id="Vector_6" d="M8.15002 32.4999C38.12 32.4699 68.09 32.4299 98.07 32.3999" stroke="#9461D3" stroke-width="0.75" stroke-miterlimit="10"/>
<path id="Vector_7" d="M52.9 0.379883C52.93 14.3699 52.96 28.3499 52.98 42.3399" stroke="#9461D3" stroke-width="0.75" stroke-miterlimit="10"/>
</g>
<defs>
<clipPath id="clip0_430_312">
<rect width="106.57" height="42.71" fill="white"/>
</clipPath>
</defs>
</svg>
